<svg width="79" height="86" viewBox="0 0 79 50" fill="none" xmlns="http://www.w3.org/2000/svg">
<path d="M14 6.00357C14 2.68789 16.6732 0 19.9707 0H60.0293C63.3268 0 66 2.68789 66 6.00357V33.4778C66 36.7935 63.3268 39.4814 60.0293 39.4814H19.9707C16.6732 39.4814 14 36.7935 14 33.4778V6.00357Z" fill="#C58940"/>
<path d="M45.7491 51.3148C42.2865 53.5617 37.8362 53.5617 34.3736 51.3148L18.9414 41.3004C14.8232 38.628 13.0946 33.4441 14.7784 28.8157L20.1374 14.0843C21.6501 9.92603 25.5847 7.16051 29.9882 7.16052L50.1346 7.16052C54.538 7.16052 58.4726 9.92603 59.9853 14.0843L65.3444 28.8157C67.0281 33.4441 65.2995 38.628 61.1813 41.3004L45.7491 51.3148Z" fill="#C58940"/>
<path d="M25.8883 5.624V10.808C25.8883 11.376 26.0363 11.812 26.3323 12.116C26.6283 12.412 27.0443 12.56 27.5803 12.56C28.1243 12.56 28.5443 12.412 28.8403 12.116C29.1363 11.812 29.2843 11.376 29.2843 10.808V5.624H30.9763V10.796C30.9763 11.508 30.8203 12.112 30.5083 12.608C30.2043 13.096 29.7923 13.464 29.2723 13.712C28.7603 13.96 28.1883 14.084 27.5563 14.084C26.9323 14.084 26.3643 13.96 25.8523 13.712C25.3483 13.464 24.9483 13.096 24.6523 12.608C24.3563 12.112 24.2083 11.508 24.2083 10.796V5.624H25.8883ZM44.5909 5.624V14H42.9109V8.552L40.6669 14H39.3949L37.1389 8.552V14H35.4589V5.624H37.3669L40.0309 11.852L42.6949 5.624H44.5909ZM52.0032 14.084C51.4192 14.084 50.8912 13.984 50.4192 13.784C49.9552 13.584 49.5872 13.296 49.3152 12.92C49.0432 12.544 48.9032 12.1 48.8952 11.588H50.6952C50.7192 11.932 50.8392 12.204 51.0552 12.404C51.2792 12.604 51.5832 12.704 51.9672 12.704C52.3592 12.704 52.6672 12.612 52.8912 12.428C53.1152 12.236 53.2272 11.988 53.2272 11.684C53.2272 11.436 53.1512 11.232 52.9992 11.072C52.8472 10.912 52.6552 10.788 52.4232 10.7C52.1992 10.604 51.8872 10.5 51.4872 10.388C50.9432 10.228 50.4992 10.072 50.1552 9.92C49.8192 9.76 49.5272 9.524 49.2792 9.212C49.0392 8.892 48.9192 8.468 48.9192 7.94C48.9192 7.444 49.0432 7.012 49.2912 6.644C49.5392 6.276 49.8872 5.996 50.3352 5.804C50.7832 5.604 51.2952 5.504 51.8712 5.504C52.7352 5.504 53.4352 5.716 53.9712 6.14C54.5152 6.556 54.8152 7.14 54.8712 7.892H53.0232C53.0072 7.604 52.8832 7.368 52.6512 7.184C52.4272 6.992 52.1272 6.896 51.7512 6.896C51.4232 6.896 51.1592 6.98 50.9592 7.148C50.7672 7.316 50.6712 7.56 50.6712 7.88C50.6712 8.104 50.7432 8.292 50.8872 8.444C51.0392 8.588 51.2232 8.708 51.4392 8.804C51.6632 8.892 51.9752 8.996 52.3752 9.116C52.9192 9.276 53.3632 9.436 53.7072 9.596C54.0512 9.756 54.3472 9.996 54.5952 10.316C54.8432 10.636 54.9672 11.056 54.9672 11.576C54.9672 12.024 54.8512 12.44 54.6192 12.824C54.3872 13.208 54.0472 13.516 53.5992 13.748C53.1512 13.972 52.6192 14.084 52.0032 14.084ZM28.638 32L25.59 28.268V32H23.91V23.624H25.59V27.38L28.638 23.624H30.666L27.21 27.776L30.762 32H28.638ZM36.3824 23.624V28.808C36.3824 29.376 36.5304 29.812 36.8264 30.116C37.1224 30.412 37.5384 30.56 38.0744 30.56C38.6184 30.56 39.0384 30.412 39.3344 30.116C39.6304 29.812 39.7784 29.376 39.7784 28.808V23.624H41.4704V28.796C41.4704 29.508 41.3144 30.112 41.0024 30.608C40.6984 31.096 40.2864 31.464 39.7664 31.712C39.2544 31.96 38.6824 32.084 38.0504 32.084C37.4264 32.084 36.8584 31.96 36.3464 31.712C35.8424 31.464 35.4424 31.096 35.1464 30.608C34.8504 30.112 34.7024 29.508 34.7024 28.796V23.624H36.3824ZM55.085 23.624V32H53.405V26.552L51.161 32H49.889L47.633 26.552V32H45.953V23.624H47.861L50.525 29.852L53.189 23.624H55.085Z" fill="white"/>
</svg>
