<svg width="35" height="35" viewBox="0 0 35 35" fill="none" xmlns="http://www.w3.org/2000/svg">
<path fill-rule="evenodd" clip-rule="evenodd" d="M22 14C22 15.0609 21.5786 16.0783 20.8284 16.8284C20.0783 17.5786 19.0609 18 18 18C16.9391 18 15.9217 17.5786 15.1716 16.8284C14.4214 16.0783 14 15.0609 14 14C14 12.9391 14.4214 11.9217 15.1716 11.1716C15.9217 10.4214 16.9391 10 18 10C19.0609 10 20.0783 10.4214 20.8284 11.1716C21.5786 11.9217 22 12.9391 22 14ZM20 14C20 14.5304 19.7893 15.0391 19.4142 15.4142C19.0391 15.7893 18.5304 16 18 16C17.4696 16 16.9609 15.7893 16.5858 15.4142C16.2107 15.0391 16 14.5304 16 14C16 13.4696 16.2107 12.9609 16.5858 12.5858C16.9609 12.2107 17.4696 12 18 12C18.5304 12 19.0391 12.2107 19.4142 12.5858C19.7893 12.9609 20 13.4696 20 14Z" fill="#C58940"/>
<path fill-rule="evenodd" clip-rule="evenodd" d="M18 6C11.925 6 7 10.925 7 17C7 23.075 11.925 28 18 28C24.075 28 29 23.075 29 17C29 10.925 24.075 6 18 6ZM9 17C9 19.09 9.713 21.014 10.908 22.542C11.7472 21.4399 12.8299 20.5467 14.0714 19.9323C15.313 19.3179 16.6797 18.9988 18.065 19C19.4323 18.9987 20.7819 19.3095 22.0109 19.9088C23.2399 20.508 24.316 21.3799 25.157 22.458C26.0234 21.3216 26.6068 19.9952 26.8589 18.5886C27.111 17.182 27.0244 15.7355 26.6065 14.369C26.1886 13.0024 25.4512 11.755 24.4555 10.73C23.4598 9.70503 22.2343 8.93186 20.8804 8.47451C19.5265 8.01716 18.0832 7.88877 16.6699 8.09997C15.2565 8.31117 13.9138 8.85589 12.7528 9.68905C11.5917 10.5222 10.6458 11.6199 9.99323 12.8912C9.34065 14.1625 9.00018 15.571 9 17ZM18 26C15.9339 26.0031 13.9303 25.2923 12.328 23.988C12.9729 23.0647 13.8313 22.3109 14.8302 21.7907C15.829 21.2705 16.9388 20.9992 18.065 21C19.1772 20.9991 20.2735 21.2636 21.2629 21.7714C22.2524 22.2793 23.1064 23.0159 23.754 23.92C22.1393 25.2667 20.1026 26.0029 18 26Z" fill="#C58940"/>
</svg>
